<svg enable-background="new 0 0 232.2 57.2" viewBox="0 0 232.2 57.2" xmlns="http://www.w3.org/2000/svg"><g fill="#fff"><path d="m67.8 56.4c-.6-1.1-1-2.3-1.2-3.6-2.3 2.9-5.9 4.5-9.7 4.3-3.5.1-7-1.1-9.6-3.4-2.6-2.1-4.1-5.3-4-8.6 0-4.3 1.6-7.6 4.8-9.8s7.9-3.3 14-3.3h3.9v-2.1c0-3.7-1.6-5.5-4.8-5.5-3 0-4.4 1.5-4.4 4.4h-12.4c-.1-3.8 1.8-7.3 4.9-9.4 3.3-2.4 7.5-3.6 12.6-3.6s9.2 1.2 12.1 3.7c3 2.6 4.7 6.3 4.6 10.2v17.7c.1 3.7.6 6.5 1.7 8.4v.6zm-7.8-8.1c1.4 0 2.7-.3 3.9-1 .9-.6 1.7-1.3 2.2-2.3v-6.4h-3.6c-4.3 0-6.5 2-6.5 5.9 0 1 .4 2 1.2 2.8.7.6 1.7 1 2.8 1z"/><path d="m103.5 45.2c0-1.1-.7-2.1-1.7-2.5-2-.9-4.1-1.6-6.3-2-2.7-.5-5.3-1.5-7.7-2.7-1.9-1-3.4-2.4-4.6-4.1-1.1-1.6-1.6-3.6-1.6-5.5-.1-3.6 1.6-7 4.6-9.1 3-2.4 7-3.6 11.9-3.6 5.3 0 9.5 1.2 12.7 3.6 3.1 2.1 4.9 5.7 4.8 9.4h-12.6c0-3.2-1.7-4.8-5.1-4.8-1.2 0-2.3.4-3.3 1.1-.8.6-1.3 1.7-1.3 2.7 0 1.1.6 2.1 1.6 2.7 1.6.9 3.4 1.5 5.2 1.7 2.1.4 4.2.9 6.3 1.6 6 2.1 9 5.8 9 11.1 0 3.6-1.8 7-4.9 8.9-3.2 2.3-7.4 3.4-12.6 3.4-3.2.1-6.3-.6-9.2-1.8-2.5-1.1-4.7-2.8-6.3-5-1.4-1.9-2.2-4.3-2.2-6.7h11.8c-.1 1.6.6 3.1 1.8 4 1.3.9 2.9 1.3 4.6 1.3 1.4.1 2.7-.2 3.8-1 .9-.6 1.3-1.7 1.3-2.7z"/><path d="m133.8 6.4v10h6.6v8.7h-6.6v18.3c-.1 1.1.2 2.2.8 3.1.5.6 1.6.9 3.2.9 1 0 2.1-.1 3.1-.2v8.9c-2.3.7-4.6 1.1-7 1.1-4.3 0-7.5-1-9.5-3-2.1-2-3.1-5.1-3.1-9.2v-20h-5.1v-8.7h5.1v-9.9z"/><path d="m142.2 6.1c0-1.7.7-3.3 1.9-4.4 2.9-2.3 7.1-2.3 10 0 1.3 1.1 2 2.7 1.9 4.4 0 1.7-.7 3.3-1.9 4.4-2.9 2.3-7.1 2.3-10 0-1.2-1.2-1.9-2.8-1.9-4.4zm13.3 50.3h-12.5v-40h12.5z"/><path d="m181.7 56.4c-.6-1.1-.9-2.3-1.2-3.6-2.3 2.9-5.9 4.5-9.6 4.3-3.5.1-7-1.1-9.6-3.4-2.6-2.1-4.1-5.3-4-8.6 0-4.3 1.6-7.6 4.8-9.8s7.9-3.3 14-3.3h3.9v-2.1c0-3.7-1.6-5.5-4.8-5.5-3 0-4.4 1.5-4.4 4.4h-12.5c0-3.8 1.8-7.3 4.9-9.4 3.3-2.4 7.5-3.6 12.6-3.6s9.1 1.2 12.1 3.7c3 2.6 4.7 6.3 4.6 10.2v17.7c.1 3.7.6 6.5 1.7 8.4v.6zm-7.8-8.1c1.4.1 2.7-.3 3.9-1 .9-.6 1.7-1.3 2.2-2.3v-6.4h-3.6c-4.3 0-6.5 2-6.5 5.8 0 1 .4 2.1 1.1 2.8.8.7 1.8 1.1 2.9 1.1z"/><path d="m207.8 16.4.4 4.7c2.7-3.6 7-5.6 11.4-5.4 4.2 0 7.3 1.2 9.4 3.7s3.1 6.2 3.2 11.2v25.8h-12.5v-25.3c.1-1.6-.3-3.2-1.2-4.5-.8-1-2.3-1.4-4.4-1.4-2.2-.1-4.3 1-5.4 2.9v28.3h-12.5v-40z"/><path d="m18.7 32.2h-2.2v4.1h2.2c.6 0 1.1-.1 1.5-.5s.5-.9.5-1.5c0-.5-.2-1.1-.5-1.5-.4-.4-1-.6-1.5-.6z"/><path d="m39.5 33.1c-1.6-2.1-3.9-3.6-6.5-4.1 2.3-.8 4.3-2.3 5.7-4.4 1.3-2.1 2-4.6 1.9-7.1 0-4.8-1.8-8.5-5.4-11.1-3.6-2.5-8.9-3.8-15.8-3.8h-19.4v53.9h21.9c6.6 0 11.5-1.4 14.9-4 3.3-2.7 5-6.6 5-11.9 0-2.8-.8-5.4-2.3-7.5zm-26.8-16.4h3.5l2.5 7.7 2.5-7.7h3.5v11.1h-2.7v-2.6l.3-5.3-2.7 7.9h-1.8l-2.7-7.9.3 5.3v2.6h-2.7zm12.1 27.6h-3.8l-2.7-5.3h-1.9v5.2h-3.6v-14.8h5.8c1.5-.1 2.9.3 4.1 1.2 1 .8 1.6 2 1.5 3.3 0 .9-.2 1.8-.6 2.6-.5.7-1.2 1.3-2 1.6l3.1 6v.2z"/></g></svg>